<?xml version="1.0" standalone="no"?>
<!DOCTYPE svg PUBLIC "-//W3C//DTD SVG 20010904//EN"
 "http://www.w3.org/TR/2001/REC-SVG-20010904/DTD/svg10.dtd">
<svg version="1.0" xmlns="http://www.w3.org/2000/svg"
 width="432.000000pt" height="117.000000pt" viewBox="0 0 432.000000 117.000000"
 preserveAspectRatio="xMidYMid meet">

<g transform="translate(0.000000,117.000000) scale(0.100000,-0.100000)"
fill="#000000" stroke="none">
<path d="M0 585 l0 -585 2160 0 2160 0 0 585 0 585 -2160 0 -2160 0 0 -585z
m1220 520 c-23 -24 -43 -35 -62 -35 l-29 0 28 35 c22 28 35 35 62 35 l35 0
-34 -35z m241 -55 c20 -6 44 -19 54 -30 17 -19 17 -21 0 -40 -17 -19 -18 -19
-43 0 -29 24 -65 26 -82 5 -19 -23 -3 -51 41 -71 91 -41 119 -96 84 -164 -29
-56 -143 -62 -190 -10 -17 19 -17 21 0 40 17 19 18 19 43 0 45 -36 109 -19
100 27 -2 10 -24 29 -50 43 -72 39 -98 68 -98 107 0 46 15 72 53 88 39 17 43
17 88 5z m2621 0 c172 -48 170 -294 -3 -340 -146 -40 -268 114 -197 249 26 51
61 79 109 91 47 11 50 11 91 0z m-3912 -140 l0 -140 65 0 65 0 0 -30 0 -30
-95 0 -95 0 0 170 0 170 30 0 30 0 0 -140z m380 115 c0 -24 -2 -25 -65 -25
l-65 0 0 -45 0 -45 55 0 c52 0 55 -1 55 -25 0 -24 -3 -25 -55 -25 l-55 0 0
-50 0 -50 65 0 c63 0 65 -1 65 -25 0 -25 0 -25 -95 -25 l-95 0 0 170 0 170 95
0 c95 0 95 0 95 -25z m353 12 c44 -19 59 -40 61 -86 0 -29 -6 -47 -23 -65
l-24 -26 46 -68 c26 -37 47 -71 47 -75 0 -4 -13 -7 -30 -7 -26 0 -36 9 -76 70
-63 94 -82 94 -86 3 -3 -66 -4 -68 -30 -71 l-28 -3 0 170 0 171 55 0 c31 0 70
-6 88 -13z m347 -12 c0 -23 -4 -24 -62 -27 l-63 -3 -3 -42 -3 -42 58 -3 c51
-3 58 -6 61 -25 3 -20 -1 -22 -55 -25 l-58 -3 0 -45 0 -45 63 -3 c59 -3 62 -4
62 -28 l0 -25 -92 3 -93 3 -3 155 c-1 85 0 160 2 167 4 9 31 13 96 13 89 0 90
0 90 -25z m548 -2 c3 -22 0 -23 -62 -23 l-66 0 0 -45 0 -45 55 0 c52 0 55 -1
55 -25 0 -24 -3 -25 -55 -25 l-55 0 0 -50 0 -50 66 0 c62 0 65 -1 62 -22 -3
-22 -8 -23 -95 -26 l-93 -3 0 171 0 171 93 -3 c87 -3 92 -4 95 -25z m310 -133
c34 -88 62 -164 62 -170 0 -5 -13 -10 -29 -10 -24 0 -31 6 -46 45 l-17 46 -71
-3 -72 -3 -15 -42 c-13 -39 -18 -43 -47 -43 l-33 0 24 63 c13 34 43 110 66
170 l41 107 38 0 38 0 61 -160z m162 41 c0 -105 2 -121 21 -145 25 -31 66 -34
100 -7 23 18 24 27 27 146 l4 126 26 -3 27 -3 0 -120 c0 -131 -11 -173 -51
-200 -39 -25 -104 -29 -144 -8 -57 29 -70 69 -70 211 l0 122 30 0 30 0 0 -119z
m587 99 c48 -30 58 -106 18 -146 l-25 -25 50 -69 c28 -39 50 -72 50 -75 0 -3
-15 -5 -34 -5 -30 0 -37 7 -80 70 -31 48 -53 70 -66 70 -18 0 -20 -7 -20 -70
l0 -70 -30 0 -30 0 0 171 0 172 73 -5 c39 -3 82 -11 94 -18z m380 -145 c34
-88 63 -164 63 -168 0 -5 -14 -7 -32 -5 -27 3 -33 9 -46 46 l-14 42 -73 0 -73
0 -14 -42 c-13 -37 -19 -43 -46 -46 -18 -2 -32 -1 -32 2 0 6 120 318 127 329
3 4 21 7 41 5 l36 -3 63 -160z m338 139 c108 -56 113 -221 8 -285 -30 -19 -55
-24 -130 -27 l-93 -4 0 172 0 172 88 -4 c64 -2 98 -9 127 -24z m215 -144 l0
-170 -30 0 -30 0 0 170 0 170 30 0 30 0 0 -170z m-960 -320 l0 -30 -680 0
-680 0 0 30 0 30 680 0 680 0 0 -30z m-1616 -185 c53 -26 88 -82 88 -143 0
-115 -73 -172 -222 -172 l-80 0 0 171 0 172 88 -5 c55 -3 103 -12 126 -23z
m208 -99 c3 -141 15 -166 73 -166 63 0 69 14 75 157 l5 128 28 3 27 3 0 -121
c0 -139 -12 -179 -62 -210 -62 -38 -154 -16 -185 44 -17 32 -32 239 -20 271 4
8 17 15 31 15 l24 0 4 -124z m608 94 l0 -30 -65 0 -65 0 0 -40 0 -40 55 0 c52
0 55 -1 55 -24 0 -23 -4 -25 -52 -28 l-53 -3 -3 -72 -3 -73 -29 0 -30 0 0 163
c0 90 3 167 7 170 3 4 46 7 95 7 l88 0 0 -30z m120 -103 c5 -141 13 -157 70
-157 57 0 65 16 70 157 l5 128 28 3 29 3 -4 -140 -3 -141 -33 -32 c-29 -30
-38 -33 -93 -33 -57 0 -62 2 -95 37 l-34 38 0 136 0 135 28 -3 27 -3 5 -128z
m528 101 c3 -28 2 -28 -52 -28 l-56 0 0 -140 0 -140 -30 0 -30 0 0 140 0 140
-50 0 c-49 0 -50 1 -50 30 l0 31 133 -3 132 -3 3 -27z m114 -92 c2 -105 6
-127 22 -145 28 -31 79 -28 105 5 19 24 21 40 21 146 l0 119 28 -3 27 -3 3
-110 c4 -125 -7 -175 -44 -204 -59 -46 -155 -35 -196 22 -20 28 -23 46 -27
150 -2 64 -1 124 3 132 3 8 16 15 30 15 l24 0 4 -124z m457 104 c46 -24 58
-105 22 -144 -12 -12 -21 -25 -21 -29 0 -3 20 -35 45 -70 25 -36 45 -68 45
-71 0 -3 -15 -6 -32 -6 -30 0 -38 7 -78 70 -34 52 -51 70 -67 70 -22 0 -23 -4
-23 -71 l0 -70 -27 3 -28 3 -3 155 c-1 85 0 161 3 169 4 11 20 13 75 8 38 -3
78 -11 89 -17z"/>
<path d="M3983 984 c-33 -16 -63 -66 -63 -104 0 -36 31 -90 61 -105 79 -41
169 15 169 105 0 43 -25 87 -60 105 -37 19 -67 19 -107 -1z"/>
<path d="M820 950 c0 -44 3 -50 21 -50 37 0 59 19 59 51 0 22 -6 32 -26 39
-48 19 -54 14 -54 -40z"/>
<path d="M1983 920 l-22 -60 46 0 c42 0 45 2 39 23 -6 25 -35 97 -39 97 -1 0
-12 -27 -24 -60z"/>
<path d="M2750 951 c0 -46 2 -51 23 -51 30 0 67 27 67 49 0 24 -19 39 -58 47
l-32 7 0 -52z"/>
<path d="M3112 926 c-12 -32 -22 -60 -22 -62 0 -2 21 -4 46 -4 51 0 51 -1 15
84 l-17 39 -22 -57z"/>
<path d="M3415 880 l0 -110 57 0 c50 0 62 4 90 29 29 26 33 35 33 81 0 46 -4
55 -33 81 -28 25 -40 29 -90 29 l-57 0 0 -110z"/>
<path d="M1060 231 l0 -111 50 0 c88 0 130 38 130 115 0 24 -9 45 -29 67 -24
27 -36 32 -90 36 l-61 4 0 -111z"/>
<path d="M3140 295 c0 -42 2 -45 26 -45 38 0 64 18 64 43 0 32 -18 47 -57 47
-32 0 -33 -1 -33 -45z"/>
</g>
</svg>
